# xmcd
#
# Track frame offsets:
#	150
#	16567
#	32385
#	45150
#	63488
#	79778
#	95716
#	112986
#	133058
#	148818
#	164475
#
# Disc length: 2449 seconds
#
# Revision: 1
# Processed by: cddbd v1.5.2PL0 Copyright (c) Steve Scherf et al.
# Submitted via: audiograbber 1.83.01
#
DISCID=86098f0b
DTITLE=Klasu - Klasu
DYEAR=2015
DGENRE=Pop
TTITLE0=Hei Onneton
TTITLE1=Katos Vain
TTITLE2=Herttaisin
TTITLE3=Sina Talvena
TTITLE4=Hetket Yon
TTITLE5=Vilkutan Maapallon Lapi
TTITLE6=Traktorin Kyytiin On Paastava
TTITLE7=Poika Ja Lintu
TTITLE8=Selkeesti Sekava Paa
TTITLE9=Toiset Tanssii
TTITLE10=Paikoillaan
EXTD=TR.
EXTT0=
EXTT1=
EXTT2=
EXTT3=
EXTT4=
EXTT5=
EXTT6=
EXTT7=
EXTT8=
EXTT9=
EXTT10=
PLAYORDER=
